<?xml version="1.0" encoding="utf-8"?>
<!-- Generator: Adobe Illustrator 21.1.0, SVG Export Plug-In . SVG Version: 6.00 Build 0)  -->
<svg version="1.1" id="Слой_1" xmlns="http://www.w3.org/2000/svg" xmlns:xlink="http://www.w3.org/1999/xlink" x="0px" y="0px"
	 viewBox="0 0 10 8" style="enable-background:new 0 0 10 8;" xml:space="preserve">
<style type="text/css">
	.st0{fill:#8F9EB3;}
</style>
<g id="Visual-Design">
	<g id="_x30_4.Podcast-Details" transform="translate(-185.000000, -132.000000)">
		<g id="aside" transform="translate(180.000000, 126.000000)">
			<g id="submenu">
				<g id="link-back" transform="translate(5.000000, 0.000000)">
					<g id="icon-back" transform="translate(0.000000, 6.000000)">
						<path id="Path" class="st0" d="M3.3,0.3C3.3,0.3,3.5,0,4,0c0.6,0,1,0.4,1,1c0,0.3-0.1,0.5-0.3,0.7L3.4,3H9c0.6,0,1,0.4,1,1
							S9.6,5,9,5H3.4l1.3,1.3C4.9,6.5,5,6.7,5,7c0,0.6-0.4,1-1,1C3.7,8,3.5,7.9,3.3,7.7l-3-3C0.3,4.7,0,4.5,0,4
							c0-0.3,0.1-0.5,0.3-0.7L3.3,0.3z"/>
					</g>
				</g>
			</g>
		</g>
	</g>
</g>
</svg>
