<?xml version="1.0" encoding="utf-8"?>
<!-- Generator: Adobe Illustrator 21.1.0, SVG Export Plug-In . SVG Version: 6.00 Build 0)  -->
<svg version="1.1" id="Слой_1" xmlns="http://www.w3.org/2000/svg" xmlns:xlink="http://www.w3.org/1999/xlink" x="0px" y="0px"
	 viewBox="0 0 16 16" style="enable-background:new 0 0 16 16;" xml:space="preserve">
<style type="text/css">
	.st0{fill:#ADBACC;}
</style>
<path class="st0" d="M8,0C3.6,0,0,3.6,0,8s3.6,8,8,8s8-3.6,8-8S12.4,0,8,0z M8,13c-0.6,0-1-0.4-1-1s0.4-1,1-1s1,0.4,1,1S8.6,13,8,13
	z M9,8.8V9c0,0.6-0.4,1-1,1S7,9.6,7,9V8c0-0.6,0.4-1,1-1s1-0.4,1-1S8.6,5,8,5S7,5.4,7,6S6.6,7,6,7S5,6.6,5,6c0-1.7,1.3-3,3-3
	s3,1.3,3,3C11,7.3,10.2,8.4,9,8.8z"/>
</svg>
