<?xml version="1.0" encoding="utf-8"?>
<!-- Generator: Adobe Illustrator 21.1.0, SVG Export Plug-In . SVG Version: 6.00 Build 0)  -->
<svg version="1.1" id="Слой_1" xmlns="http://www.w3.org/2000/svg" xmlns:xlink="http://www.w3.org/1999/xlink" x="0px" y="0px"
	 viewBox="0 0 22 22" style="enable-background:new 0 0 22 22;" xml:space="preserve">
<style type="text/css">
	.st0{fill:#ADBACC;}
</style>
<g>
	<path class="st0" d="M21,15c-1.1,0-2-0.9-2-2V8c0-4.4-3.6-8-8-8S3,3.6,3,8v5c0,1.1-0.9,2-2,2c-0.6,0-1,0.4-1,1s0.4,1,1,1h20
		c0.6,0,1-0.4,1-1S21.6,15,21,15z"/>
	<path class="st0" d="M12,19H9c-0.3,0-0.7,0.2-0.9,0.5c-0.2,0.3-0.2,0.7,0,1c0.5,1,1.4,1.5,2.4,1.5s1.9-0.6,2.4-1.5
		c0.2-0.3,0.1-0.7,0-1C12.7,19.2,12.3,19,12,19z"/>
</g>
</svg>
