<svg width="10px" height="8px" viewBox="0 0 10 8" version="1.1" xmlns="http://www.w3.org/2000/svg" xmlns:xlink="http://www.w3.org/1999/xlink">
    <g id="Visual-Design" stroke="none" stroke-width="1" fill="none" fill-rule="evenodd">
        <g id="04.Podcast-Details" transform="translate(-185.000000, -132.000000)" fill="#8F9EB3">
            <g id="aside" transform="translate(180.000000, 126.000000)">
                <g id="submenu">
                    <g id="link-back" transform="translate(5.000000, 0.000000)">
                        <g id="icon-back" transform="translate(0.000000, 6.000000)">
                            <path d="M6.707,0.293 C6.707,0.293 6.546,0 6,0 C5.447,0 5,0.447 5,1 C5,1.276 5.112,1.526 5.293,1.707 L6.586,3 L1,3 C0.447,3 0,3.447 0,4 C0,4.553 0.447,5 1,5 L6.586,5 L5.293,6.293 C5.112,6.474 5,6.724 5,7 C5,7.553 5.447,8 6,8 C6.276,8 6.526,7.888 6.707,7.707 L9.707,4.707 C9.707,4.707 10,4.546 10,4 C10,3.724 9.888,3.474 9.707,3.293 L6.707,0.293 Z" id="Path" transform="translate(5.000000, 4.000000) scale(-1, 1) translate(-5.000000, -4.000000) "></path>
                        </g>
                    </g>
                </g>
            </g>
        </g>
    </g>
</svg>
