<svg width="16px" height="16px" viewBox="0 0 16 16" version="1.1" xmlns="http://www.w3.org/2000/svg" xmlns:xlink="http://www.w3.org/1999/xlink">
    <g id="Symbols" stroke="none" stroke-width="1" fill="none" fill-rule="evenodd">
        <g id="icons/help">
            <g id="Group">
                <path d="M8,0 C3.582,0 0,3.582 0,8 C0,12.418 3.582,16 8,16 C12.418,16 16,12.418 16,8 C16,3.582 12.418,0 8,0 Z" id="Path" fill="#ADBACC"></path>
                <path d="M8,11 C7.447,11 7,11.447 7,12 C7,12.553 7.447,13 8,13 C8.553,13 9,12.553 9,12 C9,11.447 8.553,11 8,11 Z" id="Path" fill="#FFFFFF"></path>
                <path d="M8,3 C6.343,3 5,4.343 5,6 C5,6.553 5.447,7 6,7 C6.553,7 7,6.553 7,6 C7,5.447 7.447,5 8,5 C8.553,5 9,5.447 9,6 C9,6.553 8.553,7 8,7 C7.447,7 7,7.447 7,8 L7,9 C7,9.553 7.447,10 8,10 C8.553,10 9,9.553 9,9 L9,8.816 C10.162,8.403 11,7.304 11,6 C11,4.343 9.657,3 8,3 Z" id="Path" fill="#FFFFFF"></path>
            </g>
        </g>
    </g>
</svg>
